#!OML:ASF E:\motion texture\Top Level 1\Subject 1\Session 1\male.ASF
:FULLY-SPECIFIED
:DEGREES
171
root 33.5724 17.4908 4.5267 20.2575 -82.469 -11.4677
lowerback 1.45591 0.201248 -1.85468
upperback 0.483102 0.130472 -4.88296
thorax -0.314852 0.0284686 -3.9878
lowerneck -14.0795 -4.67192 -9.98843
upperneck 3.55158 -5.80621 14.8857
head 4.13032 -2.3412 5.81939
rclavicle 1.70955e-014 1.27222e-014
rhumerus 21.8829 32.0021 -78.7522
rradius 75.2983
rwrist 20.5512
rhand -33.3459 -29.7561
rfingers 7.12502
rthumb -6.54816 -59.6348
lclavicle 1.70955e-014 1.27222e-014
lhumerus 24.3216 -32.4635 87.1661
lradius 65.8849
lwrist 28.6318
lhand -6.76745 41.5911
lfingers 7.12502
lthumb 19.0945 70.6738
rfemur -34.763 -11.0805 22.9345
rtibia 54.909
rfoot -4.47329 -17.2288
rtoes 5.53301
lfemur -18.2091 -6.43917 -17.5672
ltibia 27.1554
lfoot -14.3511 0.075246
ltoes -2.45945
172
root 33.4141 17.4982 4.52272 19.6295 -82.2889 -10.8351
lowerback 1.48123 0.136565 -1.93296
upperback 0.418466 0.0365807 -4.92112
thorax -0.400838 -0.0196898 -3.98186
lowerneck -14.0042 -4.65889 -10.0291
upperneck 3.60446 -5.79514 14.9233
head 4.1352 -2.33601 5.84039
rclavicle -2.78299e-015 6.36111e-015
rhumerus 23.066 31.3735 -78.0125
rradius 75.4544
rwrist 20.6779
rhand -33.3564 -29.5248
rfingers 7.12502
rthumb -6.55824 -59.4033
lclavicle -2.78299e-015 6.36111e-015
lhumerus 25.5091 -32.4093 86.6192
lradius 65.974
lwrist 28.4304
lhand -6.67059 41.43
lfingers 7.12502
lthumb 19.1876 70.5035
rfemur -35.2486 -11.0964 22.9088
rtibia 53.3708
rfoot -4.84034 -17.1826
rtoes 5.49336
lfemur -17.4362 -6.51734 -17.618
ltibia 26.809
lfoot -14.5961 0.0855908
ltoes -2.85375
173
root 33.2551 17.5048 4.5185 19.0396 -82.1108 -10.2366
lowerback 1.50247 0.072683 -2.0064
upperback 0.352374 -0.0560565 -4.95586
thorax -0.485848 -0.0670998 -3.97497
lowerneck -13.9307 -4.64533 -10.0671
upperneck 3.65901 -5.78344 14.9564
head 4.14049 -2.33059 5.85953
rclavicle -4.77083e-015 -1.59028e-015
rhumerus 24.2325 30.7129 -77.2967
rradius 75.5706
rwrist 20.78
rhand -33.3659 -29.3064
rfingers 7.12502
rthumb -6.56744 -59.1846
lclavicle -4.77083e-015 -1.59028e-015
lhumerus 26.6799 -32.33 86.0819
lradius 66.0282
lwrist 28.1929
lhand -6.59173 41.2691
lfingers 7.12502
lthumb 19.2634 70.335
rfemur -35.6883 -11.0922 22.8667
rtibia 51.7574
rfoot -5.14585 -17.1028
rtoes 5.45124
lfemur -16.6707 -6.59204 -17.6628
ltibia 26.4695
lfoot -14.83 0.0895103
ltoes -3.25927
174
root 33.0954 17.5104 4.514 18.4862 -81.9347 -9.67116
lowerback 1.51997 0.00985299 -2.07506
upperback 0.285029 -0.147093 -4.98729
thorax -0.569859 -0.113594 -3.96721
lowerneck -13.8588 -4.63146 -10.101
upperneck 3.71457 -5.77153 14.9837
head 4.14594 -2.32519 5.87611
rclavicle -8.74653e-015 8.42847e-014
rhumerus 25.3796 30.0228 -76.6086
rradius 75.6481
rwrist 20.8599
rhand -33.3805 -29.1116
rfingers 7.12502
rthumb -6.58154 -58.9893
lclavicle -8.74653e-015 8.42847e-014
lhumerus 27.8325 -32.2282 85.5564
lradius 66.0478
lwrist 27.9207
lhand -6.52994 41.1088
lfingers 7.12502
lthumb 19.3229 70.1688
rfemur -36.0832 -11.066 22.8076
rtibia 50.0832
rfoot -5.38981 -16.9926
rtoes 5.38962
lfemur -15.9151 -6.66354 -17.7005
ltibia 26.1414
lfoot -15.0528 0.0860487
ltoes -3.68735
175
root 32.9349 17.5151 4.50925 17.9618 -81.7611 -9.13192
lowerback 1.53412 -0.0514971 -2.13915
upperback 0.216823 -0.235976 -5.01633
thorax -0.652666 -0.158916 -3.95947
lowerneck -13.7887 -4.6174 -10.1323
upperneck 3.77186 -5.7597 15.0084
head 4.152 -2.3198 5.89138
rclavicle 2.82274e-014 -2.22639e-014
rhumerus 26.5071 29.3067 -75.9505
rradius 75.6838
rwrist 20.9213
rhand -33.4019 -28.9305
rfingers 7.12502
rthumb -6.60219 -58.8075
lclavicle 2.82274e-014 -2.22639e-014
lhumerus 28.9648 -32.1075 85.0439
lradius 66.0336
lwrist 27.612
lhand -6.48423 40.9493
lfingers 7.12502
lthumb 19.3668 70.0049
rfemur -36.4333 -11.0174 22.7307
rtibia 48.3623
rfoot -5.56478 -16.8529
rtoes 5.25862
lfemur -15.1695 -6.7317 -17.7323
ltibia 25.8274
lfoot -15.2647 0.0739682
ltoes -4.13747
176
root 32.7736 17.5188 4.50417 17.471 -81.5906 -8.62424
lowerback 1.54551 -0.111943 -2.19808
upperback 0.148098 -0.323439 -5.04252
thorax -0.734304 -0.20343 -3.95158
lowerneck -13.7231 -4.60299 -10.1601
upperneck 3.83248 -5.74755 15.0282
head 4.15943 -2.3142 5.90452
rclavicle 6.75868e-015 2.54444e-014
rhumerus 27.6155 28.5706 -75.3251
rradius 75.6776
rwrist 20.9676
rhand -33.4324 -28.7614
rfingers 7.12502
rthumb -6.63164 -58.6375
lclavicle 6.75868e-015 2.54444e-014
lhumerus 30.0763 -31.9668 84.5457
lradius 65.9852
lwrist 27.266
lhand -6.4415 40.7827
lfingers 7.12502
lthumb 19.4079 69.8341
rfemur -36.7401 -10.9435 22.6366
rtibia 46.6119
rfoot -5.66643 -16.6847
rtoes 5.07738
lfemur -14.436 -6.79747 -17.7566
ltibia 25.5325
lfoot -15.4657 0.0530644
ltoes -4.60915
177
root 32.6114 17.5215 4.49874 17.0272 -81.4229 -8.16138
lowerback 1.55346 -0.170866 -2.25097
upperback 0.0792586 -0.408501 -5.06472
thorax -0.813926 -0.246633 -3.94289
lowerneck -13.6603 -4.58853 -10.1864
upperneck 3.89474 -5.73542 15.0459
head 4.16767 -2.30853 5.91671
rclavicle 1.59028e-015 -6.04305e-014
rhumerus 28.7036 27.8181 -74.7313
rradius 75.6279
rwrist 21.0025
rhand -33.4704 -28.6071
rfingers 7.12502
rthumb -6.66834 -58.4821
lclavicle 1.59028e-015 -6.04305e-014
lhumerus 31.1661 -31.8092 84.0647
lradius 65.9031
lwrist 26.8901
lhand -6.41038 40.6141
lfingers 7.12502
lthumb 19.4378 69.6625
rfemur -37.0056 -10.8415 22.5271
rtibia 44.8505
rfoot -5.69332 -16.4977
rtoes 4.89874
lfemur -13.7177 -6.86052 -17.7695
ltibia 25.2609
lfoot -15.6551 0.0213321
ltoes -5.10613
